<?xml version="1.0" encoding="utf-8"?>
<!-- Generator: Adobe Illustrator 26.1.0, SVG Export Plug-In . SVG Version: 6.00 Build 0)  -->
<svg version="1.1" xmlns="http://www.w3.org/2000/svg" xmlns:xlink="http://www.w3.org/1999/xlink" x="0px" y="0px"
	 viewBox="0 0 37.9 24" style="enable-background:new 0 0 37.9 24;" xml:space="preserve">
<style type="text/css">
	.st0{fill:#FFFFFF;}
	.st1{fill:url(#SVGID_1_);}
	.st2{fill:#EC008C;}
	.st3{fill:#DF3275;}
	.st4{fill:none;stroke:#FFFFFF;stroke-width:4;stroke-linecap:round;stroke-linejoin:round;stroke-miterlimit:10;}
	.st5{fill:#15ACCB;}
	.st6{clip-path:url(#SVGID_00000082360716102595306000000014652729925000775868_);}
	.st7{fill:url(#SVGID_00000167394509080793038470000015439335179486932378_);}
	.st8{fill:none;stroke:#FFFFFF;stroke-width:0.25;stroke-linecap:round;stroke-miterlimit:10;}
	.st9{fill:#727373;}
	.st10{fill:#2B2B2B;}
	.st11{clip-path:url(#SVGID_00000164516430290094395070000008824961586624302985_);}
	.st12{fill:url(#SVGID_00000029739356971611892260000005554126485181006509_);}
	.st13{clip-path:url(#SVGID_00000075139831639160039810000003043625563763053222_);}
	.st14{fill:url(#SVGID_00000036960028843273847230000010562076096644670141_);}
	.st15{fill:none;stroke:#FFFFFF;stroke-width:2;stroke-linecap:round;stroke-miterlimit:10;}
</style>
<g id="glTF_File">
</g>
<g id="Logo">
</g>
<g id="Favicon">
</g>
<g id="Bubble_Avatar">
	<g>
		<path class="st3" d="M29.31,5.79c-4.83,0-7.12,2.56-8.2,4.71c-0.72,1.43-0.99,2.86-1.09,3.74c-0.22-0.86-0.61-1.79-1.3-2.53
			c-0.35-0.37-0.75-0.66-1.19-0.88c0.99-0.67,1.97-1.9,1.97-4.17c0-2.1-0.72-3.83-2.08-5.01C16.16,0.57,14.45,0,12.44,0H0.61
			C0.27,0,0,0.27,0,0.61v22.74c0,0.34,0.27,0.61,0.61,0.61h11.83c0.01,0,0.04,0,0.09,0l0,0c0.52,0,2.37-0.07,4.14-0.98
			c1.47-0.75,3.19-2.25,3.55-5.2c0.29,1.26,0.74,2.31,1.92,3.58c1.63,1.74,3.99,2.63,7.02,2.63C29.2,24,29.32,24,29.49,24
			c0.77,0,2.74-0.09,4.54-0.94c2.32-1.1,3.67-2.63,3.67-5.28c0-0.34-0.27-0.61-0.61-0.61h-4c-0.17,0-0.33,0.06-0.44,0.19
			s-0.18,0.28-0.17,0.45c0,0.02,0.01,0.56-0.45,1.03c-0.5,0.51-1.39,0.78-2.58,0.78c-0.01,0-0.03,0-0.04,0c-0.01,0-0.04,0-0.1,0
			c-0.25,0-1.12-0.04-1.89-0.49c-0.76-0.45-1.21-1.21-1.33-2.25h11.14c0.31,0,0.57-0.23,0.61-0.53c0.03-0.2,0.61-4.93-2.11-8.02
			C34.24,6.64,32.08,5.79,29.31,5.79z M26.18,12.62c0.32-0.88,1.16-2.28,3.21-2.28c0.86,0,1.54,0.24,2.02,0.72
			c0.47,0.47,0.68,1.1,0.77,1.56L26.18,12.62L26.18,12.62z M6.44,13.84h6.01c0.18,0,1.79,0.08,1.79,2.51c0,1.59-0.66,2.31-2.13,2.34
			H6.44V13.84z M12.03,9.12h-5.6V5.26l5.99,0c0.17,0.01,1.01,0.13,1.01,1.76C13.44,9.12,12.69,9.12,12.03,9.12z"/>
		<path class="st3" d="M24.41,4.99h9.38c0.34,0,0.61-0.27,0.61-0.61v-2.8c0-0.34-0.27-0.61-0.61-0.61h-9.38
			c-0.34,0-0.61,0.27-0.61,0.61v2.8C23.8,4.72,24.07,4.99,24.41,4.99z"/>
	</g>
</g>
</svg>
