<?xml version="1.0" encoding="utf-8"?>
<!-- Generator: Adobe Illustrator 26.1.0, SVG Export Plug-In . SVG Version: 6.00 Build 0)  -->
<svg version="1.1" xmlns="http://www.w3.org/2000/svg" xmlns:xlink="http://www.w3.org/1999/xlink" x="0px" y="0px"
	 viewBox="0 0 12.12 24" style="enable-background:new 0 0 12.12 24;" xml:space="preserve">
<style type="text/css">
	.st0{fill:#FFFFFF;}
	.st1{fill:url(#SVGID_1_);}
	.st2{fill:#EC008C;}
	.st3{fill:#DF3275;}
	.st4{fill:none;stroke:#FFFFFF;stroke-width:4;stroke-linecap:round;stroke-linejoin:round;stroke-miterlimit:10;}
	.st5{fill:#15ACCB;}
	.st6{clip-path:url(#SVGID_00000021820480321177908260000005617349658428420024_);}
	.st7{fill:url(#SVGID_00000001634299869489374730000011714581740995286438_);}
	.st8{fill:none;stroke:#FFFFFF;stroke-width:0.25;stroke-linecap:round;stroke-miterlimit:10;}
	.st9{fill:#727373;}
	.st10{fill:#2B2B2B;}
	.st11{clip-path:url(#SVGID_00000059311064416313024950000005064417246350000001_);}
	.st12{fill:url(#SVGID_00000059303698201002091560000016818983532233389749_);}
	.st13{clip-path:url(#SVGID_00000128465786604487623500000015880410380956535466_);}
	.st14{fill:url(#SVGID_00000132778455107347648050000011318857823271697081_);}
	.st15{fill:none;stroke:#FFFFFF;stroke-width:2;stroke-linecap:round;stroke-miterlimit:10;}
</style>
<g id="glTF_File">
</g>
<g id="Logo">
</g>
<g id="Favicon">
</g>
<g id="Bubble_Avatar">
	<path class="st3" d="M0.39,12.78h2.63v10.83C3.02,23.83,3.19,24,3.4,24h4.46c0.21,0,0.39-0.17,0.39-0.39V12.83h3.02
		c0.2,0,0.36-0.15,0.38-0.34l0.46-3.99c0.01-0.11-0.02-0.22-0.1-0.3c-0.07-0.08-0.18-0.13-0.29-0.13H8.25v-2.5
		c0-0.75,0.41-1.14,1.21-1.14c0.11,0,2.28,0,2.28,0c0.21,0,0.39-0.17,0.39-0.39V0.39c0-0.21-0.17-0.39-0.39-0.39H8.6
		C8.58,0,8.53,0,8.45,0C7.91,0,6.02,0.11,4.52,1.48C2.86,3.01,3.09,4.83,3.15,5.15v2.92H0.39C0.17,8.07,0,8.25,0,8.46v3.94
		C0,12.61,0.17,12.78,0.39,12.78z"/>
</g>
</svg>
