<?xml version="1.0" encoding="utf-8"?>
<!-- Generator: Adobe Illustrator 26.1.0, SVG Export Plug-In . SVG Version: 6.00 Build 0)  -->
<svg version="1.1" xmlns="http://www.w3.org/2000/svg" xmlns:xlink="http://www.w3.org/1999/xlink" x="0px" y="0px"
	 viewBox="0 0 24 24" style="enable-background:new 0 0 24 24;" xml:space="preserve">
<style type="text/css">
	.st0{fill:#FFFFFF;}
	.st1{fill:url(#SVGID_1_);}
	.st2{fill:#EC008C;}
	.st3{fill:#DF3275;}
	.st4{fill:none;stroke:#FFFFFF;stroke-width:4;stroke-linecap:round;stroke-linejoin:round;stroke-miterlimit:10;}
	.st5{fill:#15ACCB;}
	.st6{clip-path:url(#SVGID_00000000935585280498922530000013379679039032262532_);}
	.st7{fill:url(#SVGID_00000163047874941243671180000017562940693470067377_);}
	.st8{fill:none;stroke:#FFFFFF;stroke-width:0.25;stroke-linecap:round;stroke-miterlimit:10;}
	.st9{fill:#727373;}
	.st10{fill:#2B2B2B;}
	.st11{clip-path:url(#SVGID_00000112600238182736123690000010124843387660614842_);}
	.st12{fill:url(#SVGID_00000170966621366644937950000004957950290210567822_);}
	.st13{clip-path:url(#SVGID_00000086657971663963668200000000269813217592301476_);}
	.st14{fill:url(#SVGID_00000056401036214160706820000015616226329203447705_);}
	.st15{fill:none;stroke:#FFFFFF;stroke-width:2;stroke-linecap:round;stroke-miterlimit:10;}
</style>
<g id="glTF_File">
</g>
<g id="Logo">
</g>
<g id="Favicon">
</g>
<g id="Bubble_Avatar">
	<g>
		<path class="st3" d="M12,23.98c-1.28,0-2.56,0.01-3.84,0c-0.79-0.01-1.58-0.04-2.36-0.16c-2.04-0.32-3.68-1.26-4.76-3.07
			c-0.44-0.74-0.69-1.56-0.84-2.4c-0.14-0.78-0.17-1.58-0.18-2.37C0,13.6,0,11.21,0,8.83c0-0.73,0.04-1.47,0.08-2.2
			C0.17,5.4,0.45,4.21,1.1,3.15c0.82-1.32,1.98-2.21,3.47-2.68C5.26,0.26,5.95,0.14,6.66,0.1C8.78-0.04,10.9,0.01,13.02,0
			c0.94,0,1.88,0,2.81,0.03c0.79,0.02,1.58,0.04,2.36,0.16c2.04,0.32,3.68,1.26,4.76,3.07C23.4,4,23.65,4.81,23.8,5.66
			c0.14,0.78,0.17,1.58,0.18,2.37C24,10.41,24,12.79,24,15.17c0,0.74-0.04,1.48-0.08,2.21c-0.08,1.23-0.36,2.42-1.02,3.48
			c-0.84,1.35-2.03,2.25-3.55,2.7c-0.65,0.2-1.32,0.31-2,0.35C15.56,24.03,13.78,24,12,23.98z M12.61,21.87
			c1.03-0.02,2.67-0.05,4.31-0.09c0.59-0.01,1.17-0.1,1.74-0.26c1.05-0.3,1.88-0.9,2.44-1.85c0.42-0.72,0.6-1.51,0.66-2.33
			c0.05-0.74,0.09-1.48,0.09-2.22c0-2.67,0.06-5.34-0.06-8c-0.03-0.67-0.11-1.34-0.33-1.98c-0.37-1.1-1.08-1.91-2.14-2.41
			c-0.63-0.29-1.3-0.43-1.99-0.48c-0.73-0.05-1.46-0.09-2.19-0.09c-2.67,0-5.34-0.06-8.01,0.06c-0.57,0.03-1.14,0.09-1.7,0.24
			C4.34,2.75,3.49,3.35,2.91,4.32C2.48,5.04,2.3,5.85,2.24,6.67C2.19,7.41,2.16,8.15,2.15,8.89c-0.01,2.49-0.05,4.98,0.04,7.48
			c0.02,0.6,0.05,1.21,0.17,1.8c0.12,0.61,0.32,1.2,0.68,1.72c0.65,0.95,1.57,1.49,2.69,1.73c0.78,0.17,1.57,0.19,2.35,0.21
			C9.38,21.85,10.69,21.85,12.61,21.87z"/>
		<path class="st3" d="M19.84,5.61c0-0.8-0.63-1.44-1.43-1.44c-0.8,0-1.45,0.65-1.45,1.44c0,0.79,0.65,1.44,1.44,1.44
			C19.19,7.05,19.84,6.4,19.84,5.61z"/>
		<path class="st3" d="M18.17,12c0,3.4-2.76,6.17-6.16,6.17c-3.41,0-6.18-2.76-6.18-6.16c0-3.4,2.77-6.16,6.17-6.16
			C15.4,5.84,18.17,8.6,18.17,12z M11.99,16.01c2.21,0,4.02-1.79,4.02-3.99c0-2.23-1.79-4.03-4.01-4.03c-2.21,0-4.02,1.79-4.02,4
			C7.98,14.21,9.78,16.01,11.99,16.01z"/>
		<path class="st3" d="M19.84,5.61c0,0.79-0.65,1.44-1.44,1.44c-0.79,0-1.44-0.65-1.44-1.44c0-0.79,0.65-1.44,1.45-1.44
			C19.21,4.17,19.84,4.81,19.84,5.61z"/>
	</g>
</g>
</svg>
