<?xml version="1.0" encoding="utf-8"?>
<!-- Generator: Adobe Illustrator 26.1.0, SVG Export Plug-In . SVG Version: 6.00 Build 0)  -->
<svg version="1.1" xmlns="http://www.w3.org/2000/svg" xmlns:xlink="http://www.w3.org/1999/xlink" x="0px" y="0px"
	 viewBox="0 0 24 24" style="enable-background:new 0 0 24 24;" xml:space="preserve">
<style type="text/css">
	.st0{fill:#FFFFFF;}
	.st1{fill:url(#SVGID_1_);}
	.st2{fill:#EC008C;}
	.st3{fill:#DF3275;}
	.st4{fill:none;stroke:#FFFFFF;stroke-width:4;stroke-linecap:round;stroke-linejoin:round;stroke-miterlimit:10;}
	.st5{fill:#15ACCB;}
	.st6{clip-path:url(#SVGID_00000140009428777085687880000003770960196336099240_);}
	.st7{clip-path:url(#SVGID_00000094591335533638924220000001848892453734818731_);}
	.st8{fill:url(#SVGID_00000178193148032191719820000001068483561651107001_);}
	.st9{fill:none;stroke:#FFFFFF;stroke-width:0.25;stroke-linecap:round;stroke-miterlimit:10;}
	.st10{fill:#727373;}
	.st11{fill:#2B2B2B;}
	.st12{clip-path:url(#SVGID_00000106145528455519310450000001015597977776154551_);}
	.st13{clip-path:url(#SVGID_00000039845192962905262810000005514325876929712284_);}
	.st14{fill:url(#SVGID_00000119811896264685966150000008667034325446393241_);}
	.st15{clip-path:url(#SVGID_00000165221454244284063400000006069488384032695708_);}
	.st16{clip-path:url(#SVGID_00000080173183192061618500000000477865952712298652_);}
	.st17{fill:url(#SVGID_00000124162678132687564640000006291546447686682789_);}
	.st18{fill:none;stroke:#FFFFFF;stroke-width:2;stroke-linecap:round;stroke-miterlimit:10;}
</style>
<g id="glTF_File">
</g>
<g id="Logo">
</g>
<g id="Favicon">
</g>
<g id="Bubble_Avatar">
	<path class="st3" d="M23.46,4.3c-0.38,0.17-0.76,0.31-1.16,0.42c0.47-0.53,0.83-1.15,1.04-1.84c0.05-0.15,0-0.32-0.13-0.42
		c-0.13-0.1-0.3-0.11-0.44-0.03c-0.84,0.5-1.75,0.86-2.7,1.07c-0.96-0.94-2.26-1.47-3.61-1.47c-2.84,0-5.15,2.31-5.15,5.15
		c0,0.22,0.01,0.45,0.04,0.67c-3.53-0.31-6.8-2.04-9.05-4.8C2.22,2.95,2.1,2.9,1.97,2.91C1.85,2.92,1.73,2.99,1.67,3.1
		c-0.46,0.78-0.7,1.68-0.7,2.59c0,1.24,0.44,2.42,1.23,3.34C1.96,8.94,1.73,8.84,1.51,8.72c-0.12-0.07-0.26-0.06-0.38,0
		C1.01,8.79,0.94,8.91,0.93,9.05c0,0.02,0,0.05,0,0.07c0,1.85,1,3.52,2.52,4.43c-0.13-0.01-0.26-0.03-0.39-0.06
		c-0.13-0.03-0.27,0.02-0.36,0.12c-0.09,0.1-0.12,0.24-0.08,0.37c0.56,1.76,2.02,3.06,3.77,3.45c-1.46,0.91-3.12,1.39-4.87,1.39
		c-0.36,0-0.73-0.02-1.09-0.06c-0.18-0.02-0.35,0.08-0.41,0.25c-0.06,0.17,0,0.36,0.16,0.46c2.25,1.44,4.85,2.2,7.51,2.2
		c5.25,0,8.53-2.47,10.36-4.55c2.28-2.59,3.59-6.01,3.59-9.4c0-0.14,0-0.28-0.01-0.43c0.9-0.68,1.67-1.5,2.3-2.44
		c0.1-0.14,0.09-0.33-0.03-0.46C23.8,4.27,23.61,4.23,23.46,4.3z"/>
</g>
</svg>
